<svg width="18" height="16" viewBox="0 0 18 16" fill="none" xmlns="http://www.w3.org/2000/svg">
<path opacity="0.2" d="M9 3.5625L4.9375 6.375L0.875 3.5625L4.9375 0.75L9 3.5625ZM17.125 3.5625L13.0625 0.75L9 3.5625L13.0625 6.375L17.125 3.5625ZM0.875 9.1875L4.9375 12L9 9.1875L4.9375 6.375L0.875 9.1875ZM9 9.1875L13.0625 12L17.125 9.1875L13.0625 6.375L9 9.1875Z" fill="#718096"/>
<path d="M17.4805 8.67343L14.1601 6.37499L17.4805 4.07656C17.5636 4.01906 17.6316 3.94224 17.6785 3.85271C17.7255 3.76317 17.75 3.66359 17.75 3.56249C17.75 3.4614 17.7255 3.36181 17.6785 3.27228C17.6316 3.18274 17.5636 3.10593 17.4805 3.04843L13.418 0.235931C13.3135 0.163695 13.1895 0.125 13.0625 0.125C12.9355 0.125 12.8115 0.163695 12.707 0.235931L8.99999 2.80234L5.29296 0.235931C5.18849 0.163695 5.0645 0.125 4.93749 0.125C4.81048 0.125 4.68649 0.163695 4.58202 0.235931L0.519522 3.04843C0.436371 3.10593 0.368409 3.18274 0.321466 3.27228C0.274523 3.36181 0.25 3.4614 0.25 3.56249C0.25 3.66359 0.274523 3.76317 0.321466 3.85271C0.368409 3.94224 0.436371 4.01906 0.519522 4.07656L3.84374 6.37499L0.523428 8.67343C0.440277 8.73093 0.372316 8.80774 0.325373 8.89728C0.27843 8.98681 0.253906 9.0864 0.253906 9.18749C0.253906 9.28859 0.27843 9.38817 0.325373 9.47771C0.372316 9.56724 0.440277 9.64406 0.523428 9.70156L4.58593 12.5141C4.69039 12.5863 4.81439 12.625 4.9414 12.625C5.06841 12.625 5.1924 12.5863 5.29687 12.5141L8.99999 9.94765L12.707 12.5141C12.8115 12.5863 12.9355 12.625 13.0625 12.625C13.1895 12.625 13.3135 12.5863 13.418 12.5141L17.4805 9.70156C17.5636 9.64406 17.6316 9.56724 17.6785 9.47771C17.7255 9.38817 17.75 9.28859 17.75 9.18749C17.75 9.0864 17.7255 8.98681 17.6785 8.89728C17.6316 8.80774 17.5636 8.73093 17.4805 8.67343ZM13.0625 1.51015L16.0312 3.56249L13.0625 5.61484L10.0976 3.56249L13.0625 1.51015ZM1.97265 3.56249L4.93749 1.51015L7.90624 3.56249L4.93749 5.61484L1.97265 3.56249ZM4.9414 11.2398L1.97265 9.18749L4.9414 7.13515L7.90624 9.18749L4.9414 11.2398ZM6.03515 6.37499L9.0039 4.32265L11.9687 6.37499L8.99999 8.42734L6.03515 6.37499ZM13.0664 11.2398L10.0976 9.18749L13.0625 7.13515L16.0312 9.18749L13.0664 11.2398ZM11.3844 13.1648C11.4789 13.3009 11.5155 13.4689 11.4862 13.6319C11.4569 13.795 11.3641 13.9397 11.2281 14.0344L9.36171 15.3266C9.25724 15.3988 9.13325 15.4375 9.00624 15.4375C8.87923 15.4375 8.75524 15.3988 8.65077 15.3266L6.77812 14.0312C6.64254 13.9367 6.54995 13.7922 6.52063 13.6295C6.4913 13.4668 6.52763 13.2992 6.62165 13.1632C6.71567 13.0272 6.85973 12.934 7.0223 12.904C7.18486 12.874 7.35269 12.9097 7.48905 13.0031L8.99999 14.0523L10.5109 13.0062C10.6473 12.912 10.8155 12.8757 10.9785 12.9055C11.1416 12.9352 11.2862 13.0285 11.3805 13.1648H11.3844Z" fill="#718096"/>
</svg>
