<svg width="18" height="19" viewBox="0 0 18 19" fill="none" xmlns="http://www.w3.org/2000/svg">
<path d="M7.58398 16.4993H3.00065C2.55862 16.4993 2.1347 16.3238 1.82214 16.0112C1.50958 15.6986 1.33398 15.2747 1.33398 14.8327V4.83268C1.33398 4.39065 1.50958 3.96673 1.82214 3.65417C2.1347 3.34161 2.55862 3.16602 3.00065 3.16602H13.0006C13.4427 3.16602 13.8666 3.34161 14.1792 3.65417C14.4917 3.96673 14.6673 4.39065 14.6673 4.83268V8.16602" stroke="#718096" stroke-width="1.5" stroke-linecap="round" stroke-linejoin="round"/>
<path d="M11.334 1.5V4.83333" stroke="#718096" stroke-width="1.5" stroke-linecap="round" stroke-linejoin="round"/>
<path d="M4.66602 1.5V4.83333" stroke="#718096" stroke-width="1.5" stroke-linecap="round" stroke-linejoin="round"/>
<path d="M1.33398 8.16602H14.6673" stroke="#718096" stroke-width="1.5" stroke-linecap="round" stroke-linejoin="round"/>
<path d="M12.9994 17.333L15.7911 14.5964C15.9623 14.4302 16.0985 14.2315 16.1916 14.0119C16.2847 13.7922 16.3329 13.5562 16.3333 13.3176C16.3337 13.0791 16.2863 12.8429 16.1939 12.623C16.1015 12.403 15.9659 12.2039 15.7953 12.0372C15.4471 11.6966 14.9796 11.5055 14.4925 11.5046C14.0055 11.5037 13.5373 11.693 13.1878 12.0322L13.0011 12.2155L12.8153 12.0322C12.4671 11.6919 11.9998 11.5009 11.513 11.5C11.0261 11.4991 10.5581 11.6882 10.2086 12.0272C10.0374 12.1933 9.90112 12.3919 9.80793 12.6115C9.71474 12.8311 9.66649 13.0672 9.66602 13.3057C9.66555 13.5443 9.71288 13.7805 9.80522 14.0004C9.89755 14.2204 10.033 14.4196 10.2036 14.5864L12.9994 17.333Z" stroke="#718096" stroke-width="1.5" stroke-linecap="round" stroke-linejoin="round"/>
</svg>
