<svg width="20" height="20" viewBox="0 0 20 20" fill="none" xmlns="http://www.w3.org/2000/svg">
<g clip-path="url(#clip0_1347_101)">
<path d="M9.58398 17.4993H5.00065C4.55862 17.4993 4.1347 17.3238 3.82214 17.0112C3.50958 16.6986 3.33398 16.2747 3.33398 15.8327V5.83268C3.33398 5.39065 3.50958 4.96673 3.82214 4.65417C4.1347 4.34161 4.55862 4.16602 5.00065 4.16602H15.0006C15.4427 4.16602 15.8666 4.34161 16.1792 4.65417C16.4917 4.96673 16.6673 5.39065 16.6673 5.83268V9.16602" stroke="#718096" stroke-width="1.5" stroke-linecap="round" stroke-linejoin="round"/>
<path d="M13.334 2.5V5.83333" stroke="#718096" stroke-width="1.5" stroke-linecap="round" stroke-linejoin="round"/>
<path d="M6.66602 2.5V5.83333" stroke="#718096" stroke-width="1.5" stroke-linecap="round" stroke-linejoin="round"/>
<path d="M3.33398 9.16602H16.6673" stroke="#718096" stroke-width="1.5" stroke-linecap="round" stroke-linejoin="round"/>
<path d="M14.9994 18.333L17.7911 15.5964C17.9623 15.4302 18.0985 15.2315 18.1916 15.0119C18.2847 14.7922 18.3329 14.5562 18.3333 14.3176C18.3337 14.0791 18.2863 13.8429 18.1939 13.623C18.1015 13.403 17.9659 13.2039 17.7953 13.0372C17.4471 12.6966 16.9796 12.5055 16.4925 12.5046C16.0055 12.5037 15.5373 12.693 15.1878 13.0322L15.0011 13.2155L14.8153 13.0322C14.4671 12.6919 13.9998 12.5009 13.513 12.5C13.0261 12.4991 12.5581 12.6882 12.2086 13.0272C12.0374 13.1933 11.9011 13.3919 11.8079 13.6115C11.7147 13.8311 11.6665 14.0672 11.666 14.3057C11.6656 14.5443 11.7129 14.7805 11.8052 15.0004C11.8976 15.2204 12.033 15.4196 12.2036 15.5864L14.9994 18.333Z" stroke="#718096" stroke-width="1.5" stroke-linecap="round" stroke-linejoin="round"/>
</g>
<defs>
<clipPath id="clip0_1347_101">
<rect width="20" height="20" fill="white"/>
</clipPath>
</defs>
</svg>
