<svg width="200" height="200" viewBox="0 0 200 200" fill="none" xmlns="http://www.w3.org/2000/svg">
<path d="M34.1723 148.438C34.641 146.727 33.6137 144.348 32.6332 142.633C32.3293 142.121 31.9981 141.625 31.641 141.148C23.2319 128.396 18.7499 113.455 18.7504 98.1797C18.6098 54.332 54.9692 18.75 99.9301 18.75C139.141 18.75 171.875 45.9141 179.52 81.9727C180.667 87.3186 181.247 92.7706 181.25 98.2383C181.25 142.148 146.293 178.289 101.332 178.289C94.1801 178.289 84.5356 176.492 79.2738 175.02C74.0121 173.547 68.7582 171.594 67.4028 171.07C66.0151 170.537 64.5415 170.263 63.0551 170.262C61.4342 170.256 59.8289 170.579 58.3363 171.211L31.8363 180.773C31.2573 181.024 30.6435 181.184 30.016 181.25C29.5197 181.248 29.0287 181.149 28.5713 180.956C28.1138 180.764 27.6991 180.482 27.3511 180.128C27.0031 179.775 26.7287 179.355 26.5438 178.895C26.3589 178.434 26.2671 177.942 26.2738 177.445C26.3064 177.01 26.385 176.579 26.5082 176.16L34.1723 148.438Z" stroke="#002AFF" stroke-width="12.5" stroke-miterlimit="10" stroke-linecap="round"/>
<path d="M62.5 112.5C69.4036 112.5 75 106.904 75 100C75 93.0964 69.4036 87.5 62.5 87.5C55.5964 87.5 50 93.0964 50 100C50 106.904 55.5964 112.5 62.5 112.5Z" fill="#002AFF"/>
<path d="M100 112.5C106.904 112.5 112.5 106.904 112.5 100C112.5 93.0964 106.904 87.5 100 87.5C93.0964 87.5 87.5 93.0964 87.5 100C87.5 106.904 93.0964 112.5 100 112.5Z" fill="#002AFF"/>
<path d="M137.5 112.5C144.404 112.5 150 106.904 150 100C150 93.0964 144.404 87.5 137.5 87.5C130.596 87.5 125 93.0964 125 100C125 106.904 130.596 112.5 137.5 112.5Z" fill="#002AFF"/>
</svg>
