<svg width="200" height="200" viewBox="0 0 200 200" fill="none" xmlns="http://www.w3.org/2000/svg">
<path d="M125 41.6641V58.3307" stroke="#002AFF" stroke-width="16.6667" stroke-linecap="round" stroke-linejoin="round"/>
<path d="M125 91.6641V108.331" stroke="#002AFF" stroke-width="16.6667" stroke-linecap="round" stroke-linejoin="round"/>
<path d="M125 141.664V158.331" stroke="#002AFF" stroke-width="16.6667" stroke-linecap="round" stroke-linejoin="round"/>
<path d="M41.6667 41.6641H158.333C162.754 41.6641 166.993 43.42 170.118 46.5456C173.244 49.6712 175 53.9105 175 58.3307V83.3307C170.58 83.3307 166.34 85.0867 163.215 88.2123C160.089 91.3379 158.333 95.5771 158.333 99.9974C158.333 104.418 160.089 108.657 163.215 111.783C166.34 114.908 170.58 116.664 175 116.664V141.664C175 146.084 173.244 150.324 170.118 153.449C166.993 156.575 162.754 158.331 158.333 158.331H41.6667C37.2464 158.331 33.0072 156.575 29.8816 153.449C26.7559 150.324 25 146.084 25 141.664V116.664C29.4203 116.664 33.6595 114.908 36.7851 111.783C39.9107 108.657 41.6667 104.418 41.6667 99.9974C41.6667 95.5771 39.9107 91.3379 36.7851 88.2123C33.6595 85.0867 29.4203 83.3307 25 83.3307V58.3307C25 53.9105 26.7559 49.6712 29.8816 46.5456C33.0072 43.42 37.2464 41.6641 41.6667 41.6641Z" stroke="#002AFF" stroke-width="16.6667" stroke-linecap="round" stroke-linejoin="round"/>
</svg>
