<svg width="200" height="200" viewBox="0 0 200 200" fill="none" xmlns="http://www.w3.org/2000/svg">
<path d="M162.5 86.4258V162.5C162.5 167.473 160.525 172.242 157.008 175.758C153.492 179.275 148.723 181.25 143.75 181.25H56.25C51.2772 181.25 46.5081 179.275 42.9917 175.758C39.4754 172.242 37.5 167.473 37.5 162.5V37.5C37.5 32.5272 39.4754 27.7581 42.9917 24.2417C46.5081 20.7254 51.2772 18.75 56.25 18.75H94.8242C98.1383 18.7505 101.316 20.067 103.66 22.4102L158.84 77.5898C161.183 79.9335 162.499 83.1117 162.5 86.4258Z" stroke="#002AFF" stroke-width="12.5" stroke-linejoin="round"/>
<path d="M100 21.875V68.75C100 72.0652 101.317 75.2446 103.661 77.5888C106.005 79.933 109.185 81.25 112.5 81.25H159.375M68.75 112.5H131.25M68.75 143.75H131.25" stroke="#002AFF" stroke-width="12.5" stroke-linecap="round" stroke-linejoin="round"/>
</svg>
