<svg width="16" height="17" viewBox="0 0 16 17" fill="none" xmlns="http://www.w3.org/2000/svg">
<path d="M15.5692 6.77958L8.9025 0.363235C8.89924 0.360335 8.89618 0.357211 8.89333 0.353884C8.64788 0.126178 8.32802 0 7.99625 0C7.66448 0 7.34462 0.126178 7.09917 0.353884L7.09 0.363235L0.430833 6.77958C0.294998 6.907 0.18657 7.06179 0.11241 7.23416C0.0382493 7.40653 -2.80357e-05 7.59273 1.54065e-08 7.78097V15.6399C1.54065e-08 16.0006 0.140476 16.3466 0.390524 16.6016C0.640573 16.8567 0.979711 17 1.33333 17H5.33333C5.68696 17 6.02609 16.8567 6.27614 16.6016C6.52619 16.3466 6.66667 16.0006 6.66667 15.6399V11.5595H9.33333V15.6399C9.33333 16.0006 9.47381 16.3466 9.72386 16.6016C9.97391 16.8567 10.313 17 10.6667 17H14.6667C15.0203 17 15.3594 16.8567 15.6095 16.6016C15.8595 16.3466 16 16.0006 16 15.6399V7.78097C16 7.59273 15.9618 7.40653 15.8876 7.23416C15.8134 7.06179 15.705 6.907 15.5692 6.77958ZM14.6667 15.6399H10.6667V11.5595C10.6667 11.1988 10.5262 10.8529 10.2761 10.5978C10.0261 10.3427 9.68696 10.1994 9.33333 10.1994H6.66667C6.31305 10.1994 5.97391 10.3427 5.72386 10.5978C5.47381 10.8529 5.33333 11.1988 5.33333 11.5595V15.6399H1.33333V7.78097L1.3425 7.77247L8 1.35867L14.6583 7.77077L14.6675 7.77927L14.6667 15.6399Z" fill="#002AFF"/>
</svg>
