<svg width="13" height="13" viewBox="0 0 13 13" fill="none" xmlns="http://www.w3.org/2000/svg">
<path d="M8.28531 9.67625C9.44981 9.53837 10.594 9.26356 11.6941 8.8575C10.7624 7.8255 10.2476 6.48406 10.2497 5.09375V4.625C10.2497 3.63044 9.8546 2.67661 9.15134 1.97335C8.44808 1.27009 7.49425 0.875 6.49969 0.875C5.50513 0.875 4.5513 1.27009 3.84804 1.97335C3.14478 2.67661 2.74969 3.63044 2.74969 4.625V5.09375C2.75157 6.48414 2.23655 7.8256 1.30469 8.8575C2.38781 9.2575 3.52969 9.53563 4.71406 9.67625M8.28531 9.67625C7.09905 9.81696 5.90032 9.81696 4.71406 9.67625M8.28531 9.67625C8.37538 9.95741 8.39777 10.2559 8.35068 10.5473C8.30359 10.8388 8.18833 11.115 8.0143 11.3535C7.84027 11.592 7.61238 11.786 7.34918 11.9198C7.08599 12.0535 6.79492 12.1232 6.49969 12.1232C6.20445 12.1232 5.91339 12.0535 5.65019 11.9198C5.387 11.786 5.15911 11.592 4.98508 11.3535C4.81104 11.115 4.69579 10.8388 4.6487 10.5473C4.6016 10.2559 4.624 9.95741 4.71406 9.67625" stroke="#0D0D0D" stroke-linecap="round" stroke-linejoin="round"/>
</svg>
