<svg width="200" height="200" viewBox="0 0 200 200" fill="none" xmlns="http://www.w3.org/2000/svg">
<path d="M99.965 11.1094C103.159 11.1094 106.076 12.9149 107.465 15.7969L131.284 64.8594L184.479 72.7066C187.604 73.158 190.208 75.3455 191.18 78.3663C192.153 81.3871 191.354 84.651 189.132 86.8733L150.555 125.137L159.653 179.165C160.173 182.29 158.889 185.45 156.284 187.325C153.68 189.2 150.278 189.408 147.5 187.915L99.9303 162.498L52.4303 187.88C49.6178 189.373 46.215 189.165 43.6456 187.29C41.0762 185.415 39.7567 182.255 40.2775 179.13L49.3748 125.102L10.7984 86.8733C8.54144 84.651 7.77755 81.3524 8.74977 78.3663C9.72199 75.3802 12.3262 73.1927 15.4512 72.7066L68.6456 64.8594L92.465 15.7969C93.8887 12.9149 96.7706 11.1094 99.965 11.1094ZM99.965 38.5399L81.7359 76.1094C80.5206 78.5746 78.1942 80.3108 75.4512 80.7274L34.3748 86.7691L64.2012 116.318C66.1109 118.227 67.0137 120.936 66.5623 123.609L59.5137 165.172L96.0414 145.658C98.5067 144.339 101.458 144.339 103.889 145.658L140.416 165.172L133.403 123.644C132.951 120.97 133.819 118.262 135.764 116.352L165.59 86.8038L124.514 80.7274C121.805 80.3108 119.444 78.6094 118.229 76.1094L99.965 38.5399Z" fill="#002AFF"/>
</svg>
